#!OML:ASF F:\VICON\USERDATA\INSTALL\rory3\rory3.ASF
:FULLY-SPECIFIED
:DEGREES
2614
root 0.253252 16.6586 -2.40798 7.62768 5.35195 -4.02267
lowerback 25.0337 5.41904 0.0792567
upperback 12.5 6.91944 -1.28937
thorax 0.190125 3.52052 -3.07919
lowerneck -0.149815 -11.965 -18.4918
upperneck -7.65804 -15.6697 31.6879
head 2.32018 -8.19905 12.5087
rclavicle -5.67119e-014 -1.84419e-015
rhumerus 40.5194 28.042 -29.7532
rradius 46.252
rwrist 16.5742
rhand -11.2065 14.3865
rfingers 7.12502
rthumb 14.8215 -15.0634
lclavicle -5.67119e-014 -1.84419e-015
lhumerus 59.2528 -31.946 13.4783
lradius 62.8102
lwrist 10.6919
lhand 0.111648 30.137
lfingers 7.12502
lthumb 25.6973 58.4224
rfemur -30.8583 -0.911518 21.3338
rtibia 40.3523
rfoot -17.1138 -3.45847
rtoes -18.6754
lfemur -35.185 -5.43859 -12.2166
ltibia 44.1096
lfoot -16.9431 -2.84338
ltoes -17.6414
2615
root 0.284725 16.6801 -2.40128 7.60417 5.59461 -3.84781
lowerback 24.8212 5.3197 0.387056
upperback 12.4901 6.87636 -0.94167
thorax 0.263476 3.50267 -2.8479
lowerneck -0.406737 -11.9697 -18.5908
upperneck -7.5283 -15.6646 31.6976
head 2.41112 -8.16507 12.5095
rclavicle -1.67973e-014 3.66758e-014
rhumerus 39.8931 27.9467 -30.466
rradius 46.4444
rwrist 16.5398
rhand -11.2322 14.3269
rfingers 7.12502
rthumb 14.7968 -15.1249
lclavicle -1.67973e-014 3.66758e-014
lhumerus 60.1312 -31.7326 11.7949
lradius 63.0972
lwrist 11.3433
lhand 0.15428 30.1516
lfingers 7.12502
lthumb 25.7381 58.431
rfemur -30.5832 -1.00707 21.0235
rtibia 40.0796
rfoot -16.9677 -3.67047
rtoes -19.6367
lfemur -34.8861 -5.70366 -12.5071
ltibia 43.605
lfoot -16.7418 -2.91124
ltoes -16.7316
2616
root 0.316817 16.7 -2.39577 7.5621 5.78772 -3.73132
lowerback 24.6232 5.1422 0.423516
upperback 12.4941 6.67847 -0.436094
thorax 0.285595 3.38684 -2.26554
lowerneck -0.929895 -11.8869 -18.9967
upperneck -7.15313 -15.5555 31.6285
head 2.60757 -8.03981 12.5312
rclavicle 2.00773e-014 -2.24627e-014
rhumerus 39.8458 28.1501 -30.7677
rradius 46.6568
rwrist 16.4491
rhand -11.2257 14.5008
rfingers 7.12502
rthumb 14.803 -14.9505
lclavicle 2.00773e-014 -2.24627e-014
lhumerus 60.3807 -31.3636 10.5305
lradius 63.2712
lwrist 11.7732
lhand 0.223273 30.0635
lfingers 7.12502
lthumb 25.8042 58.3333
rfemur -30.3242 -0.977629 20.7484
rtibia 39.8156
rfoot -16.827 -3.83121
rtoes -20.058
lfemur -34.5704 -5.8684 -12.7556
ltibia 43.123
lfoot -16.5038 -3.15482
ltoes -15.8142
2617
root 0.347746 16.7188 -2.38964 7.53082 5.88249 -3.43111
lowerback 24.455 5.1191 0.424106
upperback 12.4213 6.66407 -0.0657394
thorax 0.233346 3.36516 -1.85846
lowerneck -1.05203 -11.8464 -19.1234
upperneck -6.96508 -15.513 31.6276
head 2.68122 -7.99462 12.55
rclavicle -4.6118e-014 2.96189e-014
rhumerus 39.3467 28.2471 -31.308
rradius 46.7787
rwrist 16.2912
rhand -11.2476 14.406
rfingers 7.12502
rthumb 14.7819 -15.0469
lclavicle -4.6118e-014 2.96189e-014
lhumerus 61.0405 -31.2369 8.86893
lradius 63.6417
lwrist 12.1646
lhand 0.515454 30.0245
lfingers 7.12502
lthumb 26.084 58.2534
rfemur -30.1067 -0.874727 20.2574
rtibia 39.6075
rfoot -16.698 -3.95758
rtoes -20.6961
lfemur -34.2145 -5.96939 -13.2279
ltibia 42.6474
lfoot -16.3676 -3.23087
ltoes -15.65
2618
root 0.376824 16.7354 -2.38509 7.49812 5.9537 -3.13454
lowerback 24.4685 5.24585 1.04036
upperback 12.1819 6.9564 -0.00422188
thorax 0.0360816 3.53384 -2.21602
lowerneck -0.50738 -11.9599 -18.7538
upperneck -7.18722 -15.6864 31.8167
head 2.55862 -8.1401 12.5676
rclavicle -6.48038e-014 2.70347e-014
rhumerus 37.4992 27.8396 -32.8427
rradius 46.9028
rwrist 16.288
rhand -11.3893 14.3831
rfingers 7.12502
rthumb 14.6454 -15.0797
lclavicle -6.48038e-014 2.70347e-014
lhumerus 63.0811 -31.4047 6.25976
lradius 64.0073
lwrist 12.7603
lhand 0.980525 30.0491
lfingers 7.12502
lthumb 26.5292 58.2115
rfemur -29.9013 -0.750414 19.7785
rtibia 39.4411
rfoot -16.6227 -4.13123
rtoes -21.2209
lfemur -33.8745 -6.08003 -13.6822
ltibia 42.1724
lfoot -16.2367 -3.19184
ltoes -15.6547
2619
root 0.408602 16.7454 -2.38084 7.47542 6.11198 -2.70575
lowerback 24.3584 5.25083 1.17947
upperback 12.0626 7.0033 0.241805
thorax -0.0599575 3.5535 -2.04005
lowerneck -0.35201 -11.9689 -18.6756
upperneck -7.27284 -15.6896 31.8139
head 2.50088 -8.15531 12.5645
rclavicle -4.81059e-014 1.03368e-014
rhumerus 36.5055 27.646 -33.7767
rradius 47.0688
rwrist 16.27
rhand -11.3813 14.4781
rfingers 7.12502
rthumb 14.6532 -14.9842
lclavicle -4.81059e-014 1.03368e-014
lhumerus 64.1747 -31.3839 4.67068
lradius 64.1672
lwrist 13.0973
lhand 1.63818 29.9011
lfingers 7.12502
lthumb 27.1585 57.9668
rfemur -29.7036 -0.776865 19.1624
rtibia 39.323
rfoot -16.507 -4.30343
rtoes -21.6756
lfemur -33.5595 -6.26579 -14.281
ltibia 41.7045
lfoot -16.0683 -3.19213
ltoes -15.664
2620
root 0.441067 16.7605 -2.37519 7.43902 6.26411 -2.41341
lowerback 24.3578 5.15694 1.63714
upperback 11.993 6.98694 0.426453
thorax -0.107726 3.55889 -2.09666
lowerneck -0.683408 -12.0823 -18.6951
upperneck -7.15039 -15.8285 31.8471
head 2.63671 -8.18934 12.5299
rclavicle 1.19271e-014 -1.43125e-014
rhumerus 35.6877 27.2814 -34.7285
rradius 47.2219
rwrist 16.3488
rhand -11.4278 14.4235
rfingers 7.12502
rthumb 14.6084 -15.0421
lclavicle 1.19271e-014 -1.43125e-014
lhumerus 65.0813 -31.2017 3.14845
lradius 64.4202
lwrist 13.4361
lhand 1.95677 29.8969
lfingers 7.12502
lthumb 27.4632 57.9147
rfemur -29.4978 -0.82129 18.711
rtibia 39.2072
rfoot -16.3382 -4.49046
rtoes -22.2014
lfemur -33.2335 -6.43831 -14.7293
ltibia 41.2561
lfoot -15.8614 -3.22225
ltoes -15.6509
2621
root 0.471737 16.7772 -2.36954 7.41453 6.40222 -2.29469
lowerback 24.0485 5.01484 1.50684
upperback 12.0854 6.79705 1.01926
thorax 0.0379621 3.44134 -1.32014
lowerneck -1.30311 -12.0433 -19.0186
upperneck -6.86557 -15.7456 31.6128
head 2.80425 -8.07334 12.465
rclavicle 2.38542e-014 -3.4191e-014
rhumerus 35.7601 27.3405 -34.9608
rradius 47.4907
rwrist 16.2879
rhand -11.6202 14.2133
rfingers 7.12502
rthumb 14.4229 -15.2656
lclavicle 2.38542e-014 -3.4191e-014
lhumerus 65.0291 -30.8707 2.38183
lradius 64.4886
lwrist 13.8836
lhand 1.71834 29.9944
lfingers 7.12502
lthumb 27.2352 58.0481
rfemur -29.3238 -0.795645 18.4497
rtibia 39.096
rfoot -16.2164 -4.65534
rtoes -22.4243
lfemur -32.9549 -6.57023 -14.9829
ltibia 40.8398
lfoot -15.7008 -3.21151
ltoes -16.2603
2622
root 0.501836 16.7879 -2.36675 7.36438 6.52062 -2.11061
lowerback 23.9133 5.01517 1.81816
upperback 12.0643 6.87104 1.33503
thorax 0.0765108 3.48239 -1.16301
lowerneck -1.23036 -12.1361 -18.958
upperneck -7.01908 -15.8491 31.6849
head 2.78052 -8.13716 12.4697
rclavicle 3.73715e-014 -1.74931e-014
rhumerus 35.0293 26.9327 -35.695
rradius 47.6943
rwrist 16.2003
rhand -11.7855 14.0537
rfingers 7.12502
rthumb 14.2637 -15.4365
lclavicle 3.73715e-014 -1.74931e-014
lhumerus 66.1173 -30.6575 0.832133
lradius 64.5651
lwrist 14.5735
lhand 1.47667 29.87
lfingers 7.12502
lthumb 27.004 57.9598
rfemur -29.1061 -0.739608 18.1052
rtibia 38.9414
rfoot -16.1317 -4.76634
rtoes -21.9696
lfemur -32.6697 -6.7134 -15.2931
ltibia 40.4417
lfoot -15.4874 -3.35012
ltoes -15.5996
2623
root 0.532584 16.799 -2.36421 7.34173 6.64819 -1.89431
lowerback 23.782 4.93218 2.10627
upperback 12.0347 6.83219 1.62038
thorax 0.101887 3.46712 -1.00126
lowerneck -1.30847 -12.1663 -18.9698
upperneck -7.04385 -15.8706 31.7158
head 2.7989 -8.14056 12.4741
rclavicle -1.03368e-014 -7.95139e-015
rhumerus 34.9736 26.746 -35.8778
rradius 47.7805
rwrist 15.684
rhand -11.7558 13.9651
rfingers 7.12502
rthumb 14.2923 -15.523
lclavicle -1.03368e-014 -7.95139e-015
lhumerus 66.8793 -30.4859 -0.598653
lradius 64.7006
lwrist 15.1887
lhand 1.18745 29.6311
lfingers 7.12502
lthumb 26.7272 57.7635
rfemur -28.9098 -0.717843 17.7268
rtibia 38.7778
rfoot -16.0165 -4.82904
rtoes -21.4066
lfemur -32.4116 -6.83325 -15.6489
ltibia 40.0572
lfoot -15.2835 -3.4193
ltoes -15.527
2624
root 0.56309 16.8161 -2.36156 7.29012 6.73819 -1.77397
lowerback 23.7503 4.81195 2.46573
upperback 11.9554 6.76164 1.9108
thorax 0.0320134 3.43637 -0.878607
lowerneck -1.56543 -12.1726 -18.9452
upperneck -6.85335 -15.8744 31.5934
head 2.87996 -8.10856 12.4022
rclavicle -3.97569e-014 2.62396e-014
rhumerus 34.7623 26.6012 -36.3093
rradius 47.9421
rwrist 15.2424
rhand -11.6223 14.0462
rfingers 7.12502
rthumb 14.421 -15.4328
lclavicle -3.97569e-014 2.62396e-014
lhumerus 67.5721 -30.405 -2.01903
lradius 64.8172
lwrist 15.8963
lhand 0.976101 29.8029
lfingers 7.12502
lthumb 26.525 57.966
rfemur -28.6923 -0.543715 17.4373
rtibia 38.6224
rfoot -15.8618 -4.98926
rtoes -20.8748
lfemur -32.1286 -6.95424 -15.8867
ltibia 39.6843
lfoot -15.1754 -3.48387
ltoes -15.2744
2625
root 0.594025 16.8291 -2.35885 7.27454 6.81989 -1.59256
lowerback 23.6845 4.75891 2.81775
upperback 11.8619 6.77407 2.16321
thorax -0.030144 3.44781 -0.808376
lowerneck -1.7232 -12.2397 -18.8467
upperneck -6.76 -15.9592 31.555
head 2.94191 -8.13168 12.3427
rclavicle 8.74653e-015 2.3059e-014
rhumerus 33.8734 26.1706 -37.339
rradius 48.2481
rwrist 15.3698
rhand -11.568 14.2587
rfingers 7.12502
rthumb 14.4732 -15.2166
lclavicle 8.74653e-015 2.3059e-014
lhumerus 68.5455 -30.2737 -3.42887
lradius 64.8124
lwrist 16.8233
lhand 1.11748 29.9954
lfingers 7.12502
lthumb 26.6603 58.138
rfemur -28.5425 -0.377037 17.0734
rtibia 38.5216
rfoot -15.7626 -5.13869
rtoes -20.4811
lfemur -31.878 -7.08419 -16.2026
ltibia 39.3236
lfoot -15.0114 -3.34092
ltoes -16.1788
2626
root 0.626472 16.8358 -2.3564 7.28228 6.92085 -1.33281
lowerback 23.5241 4.65775 2.92571
upperback 11.8405 6.6756 2.5337
thorax -0.014461 3.39204 -0.442412
lowerneck -1.94927 -12.2473 -19.0384
upperneck -6.63843 -15.959 31.5152
head 3.02857 -8.10181 12.3445
rclavicle -1.08139e-013 6.36111e-015
rhumerus 33.4134 25.9821 -37.9228
rradius 48.5606
rwrist 15.5498
rhand -11.502 14.3949
rfingers 7.12502
rthumb 14.5368 -15.0758
lclavicle -1.08139e-013 6.36111e-015
lhumerus 69.1243 -30.1514 -4.43267
lradius 64.6961
lwrist 17.693
lhand 1.04333 30.0518
lfingers 7.12502
lthumb 26.5893 58.2052
rfemur -28.4366 -0.349643 16.6367
rtibia 38.4488
rfoot -15.6887 -5.25792
rtoes -20.5446
lfemur -31.6856 -7.27386 -16.6006
ltibia 39.0153
lfoot -14.8107 -3.267
ltoes -16.8983
2627
root 0.658784 16.8378 -2.35419 7.28953 7.04421 -0.988694
lowerback 23.4356 4.53276 3.05611
upperback 11.7736 6.5518 2.81271
thorax -0.0685457 3.32636 -0.189137
lowerneck -1.96839 -12.2487 -19.1286
upperneck -6.67681 -15.9445 31.4961
head 3.02384 -8.09082 12.3548
rclavicle 5.1684e-014 1.11319e-014
rhumerus 33.1079 25.9636 -38.2441
rradius 48.8475
rwrist 15.4219
rhand -11.3987 14.2759
rfingers 7.12502
rthumb 14.6364 -15.1876
lclavicle 5.1684e-014 1.11319e-014
lhumerus 69.7323 -30.1152 -5.49222
lradius 64.6072
lwrist 18.2012
lhand 0.977574 30.109
lfingers 7.12502
lthumb 26.5264 58.2719
rfemur -28.3531 -0.381576 16.1162
rtibia 38.4462
rfoot -15.6767 -5.39798
rtoes -20.4772
lfemur -31.5045 -7.4933 -17.0909
ltibia 38.7683
lfoot -14.6894 -3.2838
ltoes -16.099
2628
root 0.689698 16.8403 -2.35169 7.28065 7.14271 -0.846571
lowerback 23.3528 4.44744 3.46471
upperback 11.6823 6.53374 3.10039
thorax -0.11732 3.32391 -0.1046
lowerneck -1.90238 -12.3022 -19.1496
upperneck -6.75388 -16.0067 31.4797
head 3.00719 -8.12707 12.3462
rclavicle 3.02153e-014 3.02153e-014
rhumerus 32.5884 25.7768 -38.7149
rradius 49.1094
rwrist 15.3068
rhand -11.3215 14.3461
rfingers 7.12502
rthumb 14.7108 -15.112
lclavicle 3.02153e-014 3.02153e-014
lhumerus 70.5627 -30.0547 -6.50398
lradius 64.4175
lwrist 18.4493
lhand 0.989662 29.8884
lfingers 7.12502
lthumb 26.538 58.0495
rfemur -28.2817 -0.363088 15.8302
rtibia 38.4851
rfoot -15.6828 -5.54803
rtoes -20.7092
lfemur -31.3547 -7.59822 -17.366
ltibia 38.5755
lfoot -14.6441 -3.30788
ltoes -15.4921
